<mxfile host="app.diagrams.net" modified="2020-09-29T18:42:56.268Z" agent="5.0 (Macintosh; Intel Mac OS X 10_15_3) AppleWebKit/605.1.15 (KHTML, like Gecko) Version/13.0.5 Safari/605.1.15" etag="PI4PsqfBMnGKn2lUh1CQ" version="13.7.6" type="github">
  <diagram id="C5RBs43oDa-KdzZeNtuy" name="Page-1">
    <mxGraphModel dx="2361" dy="1039" grid="1" gridSize="10" guides="1" tooltips="1" connect="1" arrows="1" fold="1" page="1" pageScale="1" pageWidth="827" pageHeight="1169" math="0" shadow="0">
      <root>
        <mxCell id="WIyWlLk6GJQsqaUBKTNV-0" />
        <mxCell id="WIyWlLk6GJQsqaUBKTNV-1" parent="WIyWlLk6GJQsqaUBKTNV-0" />
        <mxCell id="C2iOl5TPx-IQzo7V2mOy-38" value="Shell" style="swimlane;fontStyle=1;align=center;verticalAlign=top;childLayout=stackLayout;horizontal=1;startSize=26;horizontalStack=0;resizeParent=1;resizeParentMax=0;resizeLast=0;collapsible=1;marginBottom=0;" parent="WIyWlLk6GJQsqaUBKTNV-1" vertex="1">
          <mxGeometry x="1140" y="200" width="160" height="50" as="geometry" />
        </mxCell>
        <mxCell id="C2iOl5TPx-IQzo7V2mOy-41" value="+start()" style="text;strokeColor=none;fillColor=none;align=left;verticalAlign=top;spacingLeft=4;spacingRight=4;overflow=hidden;rotatable=0;points=[[0,0.5],[1,0.5]];portConstraint=eastwest;" parent="C2iOl5TPx-IQzo7V2mOy-38" vertex="1">
          <mxGeometry y="26" width="160" height="24" as="geometry" />
        </mxCell>
        <mxCell id="VJrtjI2OKQ1O3ZYctq5D-0" value="&lt;p style=&quot;margin: 0px ; margin-top: 4px ; text-align: center&quot;&gt;&lt;i&gt;&amp;lt;&amp;lt;Interface&amp;gt;&amp;gt;&lt;/i&gt;&lt;br&gt;&lt;b&gt;Command&lt;/b&gt;&lt;/p&gt;&lt;hr size=&quot;1&quot;&gt;&lt;p style=&quot;margin: 0px ; margin-left: 4px&quot;&gt;- name: String&lt;br&gt;- args: List&amp;lt;String&amp;gt;&lt;/p&gt;&lt;hr size=&quot;1&quot;&gt;&lt;p style=&quot;margin: 0px ; margin-left: 4px&quot;&gt;+ execute(): List&amp;lt;String&amp;gt;&lt;br&gt;&lt;/p&gt;&lt;p style=&quot;margin: 0px ; margin-left: 4px&quot;&gt;+ setArgs()&lt;/p&gt;&lt;p style=&quot;margin: 0px ; margin-left: 4px&quot;&gt;+ getArgs(): List&amp;lt;String&amp;gt;&lt;/p&gt;" style="verticalAlign=top;align=left;overflow=fill;fontSize=12;fontFamily=Helvetica;html=1;" parent="WIyWlLk6GJQsqaUBKTNV-1" vertex="1">
          <mxGeometry x="290" y="890" width="190" height="140" as="geometry" />
        </mxCell>
        <mxCell id="J4Nk3TUKOTsG7t74JODU-21" style="edgeStyle=elbowEdgeStyle;rounded=0;jumpStyle=none;orthogonalLoop=1;jettySize=auto;elbow=vertical;html=1;exitX=0.5;exitY=0;exitDx=0;exitDy=0;dashed=1;endArrow=none;endFill=0;" parent="WIyWlLk6GJQsqaUBKTNV-1" source="VJrtjI2OKQ1O3ZYctq5D-21" edge="1">
          <mxGeometry relative="1" as="geometry">
            <mxPoint x="315" y="1100" as="targetPoint" />
          </mxGeometry>
        </mxCell>
        <mxCell id="C2iOl5TPx-IQzo7V2mOy-6" value="Environment" style="swimlane;fontStyle=1;align=center;verticalAlign=top;childLayout=stackLayout;horizontal=1;startSize=26;horizontalStack=0;resizeParent=1;resizeParentMax=0;resizeLast=0;collapsible=1;marginBottom=0;" parent="WIyWlLk6GJQsqaUBKTNV-1" vertex="1">
          <mxGeometry x="-40" y="200" width="260" height="140" as="geometry" />
        </mxCell>
        <mxCell id="C2iOl5TPx-IQzo7V2mOy-7" value="- vars: Map&lt;String, String&gt;&#xa;- status: Integer" style="text;strokeColor=none;fillColor=none;align=left;verticalAlign=top;spacingLeft=4;spacingRight=4;overflow=hidden;rotatable=0;points=[[0,0.5],[1,0.5]];portConstraint=eastwest;" parent="C2iOl5TPx-IQzo7V2mOy-6" vertex="1">
          <mxGeometry y="26" width="260" height="34" as="geometry" />
        </mxCell>
        <mxCell id="C2iOl5TPx-IQzo7V2mOy-67" value="" style="line;strokeWidth=1;fillColor=none;align=left;verticalAlign=middle;spacingTop=-1;spacingLeft=3;spacingRight=3;rotatable=0;labelPosition=right;points=[];portConstraint=eastwest;" parent="C2iOl5TPx-IQzo7V2mOy-6" vertex="1">
          <mxGeometry y="60" width="260" height="38" as="geometry" />
        </mxCell>
        <mxCell id="C2iOl5TPx-IQzo7V2mOy-72" value="+ findName(String): String" style="text;strokeColor=none;fillColor=none;align=left;verticalAlign=top;spacingLeft=4;spacingRight=4;overflow=hidden;rotatable=0;points=[[0,0.5],[1,0.5]];portConstraint=eastwest;" parent="C2iOl5TPx-IQzo7V2mOy-6" vertex="1">
          <mxGeometry y="98" width="260" height="42" as="geometry" />
        </mxCell>
        <mxCell id="VJrtjI2OKQ1O3ZYctq5D-21" value="EchoCommand" style="swimlane;fontStyle=0;align=center;verticalAlign=top;childLayout=stackLayout;horizontal=1;startSize=30;horizontalStack=0;resizeParent=1;resizeLast=0;collapsible=1;marginBottom=0;rounded=0;shadow=0;strokeWidth=1;" parent="WIyWlLk6GJQsqaUBKTNV-1" vertex="1">
          <mxGeometry x="260" y="1120" width="110" height="20" as="geometry">
            <mxRectangle x="340" y="380" width="170" height="26" as="alternateBounds" />
          </mxGeometry>
        </mxCell>
        <mxCell id="J4Nk3TUKOTsG7t74JODU-23" style="edgeStyle=elbowEdgeStyle;rounded=0;jumpStyle=none;orthogonalLoop=1;jettySize=auto;elbow=vertical;html=1;exitX=0.5;exitY=0;exitDx=0;exitDy=0;dashed=1;endArrow=none;endFill=0;" parent="WIyWlLk6GJQsqaUBKTNV-1" source="VJrtjI2OKQ1O3ZYctq5D-17" edge="1">
          <mxGeometry relative="1" as="geometry">
            <mxPoint x="450" y="1100" as="targetPoint" />
          </mxGeometry>
        </mxCell>
        <mxCell id="VJrtjI2OKQ1O3ZYctq5D-17" value="AssignmentCommand&#xa;" style="swimlane;fontStyle=0;align=center;verticalAlign=top;childLayout=stackLayout;horizontal=1;startSize=30;horizontalStack=0;resizeParent=1;resizeLast=0;collapsible=1;marginBottom=0;rounded=0;shadow=0;strokeWidth=1;" parent="WIyWlLk6GJQsqaUBKTNV-1" vertex="1">
          <mxGeometry x="380" y="1120" width="140" height="20" as="geometry">
            <mxRectangle x="340" y="380" width="170" height="26" as="alternateBounds" />
          </mxGeometry>
        </mxCell>
        <mxCell id="J4Nk3TUKOTsG7t74JODU-22" style="edgeStyle=elbowEdgeStyle;rounded=0;jumpStyle=none;orthogonalLoop=1;jettySize=auto;elbow=vertical;html=1;exitX=0.5;exitY=0;exitDx=0;exitDy=0;dashed=1;endArrow=none;endFill=0;" parent="WIyWlLk6GJQsqaUBKTNV-1" source="VJrtjI2OKQ1O3ZYctq5D-1" edge="1">
          <mxGeometry relative="1" as="geometry">
            <mxPoint x="410" y="1080" as="targetPoint" />
          </mxGeometry>
        </mxCell>
        <mxCell id="VJrtjI2OKQ1O3ZYctq5D-1" value="CatCommand" style="swimlane;fontStyle=0;align=center;verticalAlign=top;childLayout=stackLayout;horizontal=1;startSize=30;horizontalStack=0;resizeParent=1;resizeLast=0;collapsible=1;marginBottom=0;rounded=0;shadow=0;strokeWidth=1;" parent="WIyWlLk6GJQsqaUBKTNV-1" vertex="1">
          <mxGeometry x="530" y="1120" width="110" height="20" as="geometry">
            <mxRectangle x="340" y="380" width="170" height="26" as="alternateBounds" />
          </mxGeometry>
        </mxCell>
        <mxCell id="J4Nk3TUKOTsG7t74JODU-29" style="edgeStyle=elbowEdgeStyle;rounded=0;jumpStyle=none;orthogonalLoop=1;jettySize=auto;elbow=vertical;html=1;exitX=0.5;exitY=0;exitDx=0;exitDy=0;dashed=1;startSize=6;endArrow=none;endFill=0;" parent="WIyWlLk6GJQsqaUBKTNV-1" source="VJrtjI2OKQ1O3ZYctq5D-19" edge="1">
          <mxGeometry relative="1" as="geometry">
            <mxPoint x="350" y="1080" as="targetPoint" />
          </mxGeometry>
        </mxCell>
        <mxCell id="VJrtjI2OKQ1O3ZYctq5D-19" value="PwdCommand" style="swimlane;fontStyle=0;align=center;verticalAlign=top;childLayout=stackLayout;horizontal=1;startSize=30;horizontalStack=0;resizeParent=1;resizeLast=0;collapsible=1;marginBottom=0;rounded=0;shadow=0;strokeWidth=1;" parent="WIyWlLk6GJQsqaUBKTNV-1" vertex="1">
          <mxGeometry x="140" y="1120" width="110" height="20" as="geometry">
            <mxRectangle x="340" y="380" width="170" height="26" as="alternateBounds" />
          </mxGeometry>
        </mxCell>
        <mxCell id="J4Nk3TUKOTsG7t74JODU-26" style="edgeStyle=elbowEdgeStyle;rounded=0;jumpStyle=none;orthogonalLoop=1;jettySize=auto;elbow=vertical;html=1;exitX=1;exitY=0.75;exitDx=0;exitDy=0;entryX=0.5;entryY=1;entryDx=0;entryDy=0;dashed=1;endArrow=block;endFill=0;" parent="WIyWlLk6GJQsqaUBKTNV-1" source="VJrtjI2OKQ1O3ZYctq5D-11" target="VJrtjI2OKQ1O3ZYctq5D-0" edge="1">
          <mxGeometry relative="1" as="geometry">
            <Array as="points">
              <mxPoint x="380" y="1083" />
              <mxPoint x="350" y="1083" />
            </Array>
          </mxGeometry>
        </mxCell>
        <mxCell id="VJrtjI2OKQ1O3ZYctq5D-11" value="ExitCommand" style="swimlane;fontStyle=0;align=center;verticalAlign=top;childLayout=stackLayout;horizontal=1;startSize=30;horizontalStack=0;resizeParent=1;resizeLast=0;collapsible=1;marginBottom=0;rounded=0;shadow=0;strokeWidth=1;" parent="WIyWlLk6GJQsqaUBKTNV-1" vertex="1">
          <mxGeometry x="170" y="1060" width="140" height="30" as="geometry">
            <mxRectangle x="340" y="380" width="170" height="26" as="alternateBounds" />
          </mxGeometry>
        </mxCell>
        <mxCell id="J4Nk3TUKOTsG7t74JODU-27" style="edgeStyle=elbowEdgeStyle;rounded=0;jumpStyle=none;orthogonalLoop=1;jettySize=auto;elbow=vertical;html=1;exitX=0;exitY=0.75;exitDx=0;exitDy=0;dashed=1;endArrow=none;endFill=0;" parent="WIyWlLk6GJQsqaUBKTNV-1" source="VJrtjI2OKQ1O3ZYctq5D-14" edge="1">
          <mxGeometry relative="1" as="geometry">
            <mxPoint x="380" y="1083" as="targetPoint" />
          </mxGeometry>
        </mxCell>
        <mxCell id="VJrtjI2OKQ1O3ZYctq5D-14" value="WcCommand" style="swimlane;fontStyle=0;align=center;verticalAlign=top;childLayout=stackLayout;horizontal=1;startSize=30;horizontalStack=0;resizeParent=1;resizeLast=0;collapsible=1;marginBottom=0;rounded=0;shadow=0;strokeWidth=1;" parent="WIyWlLk6GJQsqaUBKTNV-1" vertex="1">
          <mxGeometry x="450" y="1060" width="140" height="30" as="geometry">
            <mxRectangle x="340" y="380" width="170" height="26" as="alternateBounds" />
          </mxGeometry>
        </mxCell>
        <mxCell id="C2iOl5TPx-IQzo7V2mOy-0" value="Parser" style="swimlane;fontStyle=1;align=center;verticalAlign=top;childLayout=stackLayout;horizontal=1;startSize=26;horizontalStack=0;resizeParent=1;resizeParentMax=0;resizeLast=0;collapsible=1;marginBottom=0;" parent="WIyWlLk6GJQsqaUBKTNV-1" vertex="1">
          <mxGeometry x="670" y="715" width="310" height="72" as="geometry" />
        </mxCell>
        <mxCell id="C2iOl5TPx-IQzo7V2mOy-2" value="+ parseBySeparator(String): List&lt;Token&gt;" style="text;strokeColor=none;fillColor=none;align=left;verticalAlign=top;spacingLeft=4;spacingRight=4;overflow=hidden;rotatable=0;points=[[0,0.5],[1,0.5]];portConstraint=eastwest;" parent="C2iOl5TPx-IQzo7V2mOy-0" vertex="1">
          <mxGeometry y="26" width="310" height="46" as="geometry" />
        </mxCell>
        <mxCell id="C2iOl5TPx-IQzo7V2mOy-21" value="" style="endArrow=block;dashed=1;endFill=0;endSize=12;html=1;exitX=0.5;exitY=0;exitDx=0;exitDy=0;entryX=0.487;entryY=1.095;entryDx=0;entryDy=0;entryPerimeter=0;" parent="WIyWlLk6GJQsqaUBKTNV-1" source="C2iOl5TPx-IQzo7V2mOy-18" target="C2iOl5TPx-IQzo7V2mOy-13" edge="1">
          <mxGeometry width="160" relative="1" as="geometry">
            <mxPoint x="1110" y="1380" as="sourcePoint" />
            <mxPoint x="980" y="1310" as="targetPoint" />
            <Array as="points">
              <mxPoint x="858" y="1350" />
            </Array>
          </mxGeometry>
        </mxCell>
        <mxCell id="C2iOl5TPx-IQzo7V2mOy-22" value="" style="endArrow=none;dashed=1;html=1;exitX=0.5;exitY=0;exitDx=0;exitDy=0;" parent="WIyWlLk6GJQsqaUBKTNV-1" source="C2iOl5TPx-IQzo7V2mOy-14" edge="1">
          <mxGeometry width="50" height="50" relative="1" as="geometry">
            <mxPoint x="690" y="1580" as="sourcePoint" />
            <mxPoint x="850" y="1350" as="targetPoint" />
          </mxGeometry>
        </mxCell>
        <mxCell id="7sVxfF_X4f4mhm9MYnKA-0" value="PipelineCreator" style="swimlane;fontStyle=1;align=center;verticalAlign=top;childLayout=stackLayout;horizontal=1;startSize=26;horizontalStack=0;resizeParent=1;resizeParentMax=0;resizeLast=0;collapsible=1;marginBottom=0;" parent="WIyWlLk6GJQsqaUBKTNV-1" vertex="1">
          <mxGeometry x="950" y="1080" width="440" height="68" as="geometry" />
        </mxCell>
        <mxCell id="7sVxfF_X4f4mhm9MYnKA-3" value="+ createPipeline(List&lt;Token&gt;): List&lt;CommandProcessor&gt;" style="text;strokeColor=none;fillColor=none;align=left;verticalAlign=top;spacingLeft=4;spacingRight=4;overflow=hidden;rotatable=0;points=[[0,0.5],[1,0.5]];portConstraint=eastwest;" parent="7sVxfF_X4f4mhm9MYnKA-0" vertex="1">
          <mxGeometry y="26" width="440" height="42" as="geometry" />
        </mxCell>
        <mxCell id="C2iOl5TPx-IQzo7V2mOy-48" value="" style="endArrow=diamondThin;endFill=0;endSize=24;html=1;exitX=0.419;exitY=0.01;exitDx=0;exitDy=0;exitPerimeter=0;" parent="WIyWlLk6GJQsqaUBKTNV-1" source="VJrtjI2OKQ1O3ZYctq5D-0" target="ryLc1YjKSVbnKzWnMCqD-3" edge="1">
          <mxGeometry width="160" relative="1" as="geometry">
            <mxPoint x="720" y="910" as="sourcePoint" />
            <mxPoint x="370" y="830" as="targetPoint" />
          </mxGeometry>
        </mxCell>
        <mxCell id="ryLc1YjKSVbnKzWnMCqD-0" value="CommandProcessor" style="swimlane;fontStyle=1;align=center;verticalAlign=top;childLayout=stackLayout;horizontal=1;startSize=26;horizontalStack=0;resizeParent=1;resizeParentMax=0;resizeLast=0;collapsible=1;marginBottom=0;" parent="WIyWlLk6GJQsqaUBKTNV-1" vertex="1">
          <mxGeometry x="290" y="686" width="160" height="130" as="geometry" />
        </mxCell>
        <mxCell id="ryLc1YjKSVbnKzWnMCqD-1" value="- next: CommandProcessor&#xa;&#xa;&#xa;&#xa;&#xa;" style="text;strokeColor=none;fillColor=none;align=left;verticalAlign=top;spacingLeft=4;spacingRight=4;overflow=hidden;rotatable=0;points=[[0,0.5],[1,0.5]];portConstraint=eastwest;" parent="ryLc1YjKSVbnKzWnMCqD-0" vertex="1">
          <mxGeometry y="26" width="160" height="54" as="geometry" />
        </mxCell>
        <mxCell id="ryLc1YjKSVbnKzWnMCqD-2" value="" style="line;strokeWidth=1;fillColor=none;align=left;verticalAlign=middle;spacingTop=-1;spacingLeft=3;spacingRight=3;rotatable=0;labelPosition=right;points=[];portConstraint=eastwest;" parent="ryLc1YjKSVbnKzWnMCqD-0" vertex="1">
          <mxGeometry y="80" width="160" height="8" as="geometry" />
        </mxCell>
        <mxCell id="ryLc1YjKSVbnKzWnMCqD-3" value="+ process()&#xa;+ substituteArgs()" style="text;strokeColor=none;fillColor=none;align=left;verticalAlign=top;spacingLeft=4;spacingRight=4;overflow=hidden;rotatable=0;points=[[0,0.5],[1,0.5]];portConstraint=eastwest;" parent="ryLc1YjKSVbnKzWnMCqD-0" vertex="1">
          <mxGeometry y="88" width="160" height="42" as="geometry" />
        </mxCell>
        <mxCell id="C2iOl5TPx-IQzo7V2mOy-55" value="" style="endArrow=open;endFill=1;endSize=12;html=1;entryX=0.5;entryY=1;entryDx=0;entryDy=0;" parent="WIyWlLk6GJQsqaUBKTNV-1" target="C2iOl5TPx-IQzo7V2mOy-14" edge="1">
          <mxGeometry width="160" relative="1" as="geometry">
            <mxPoint x="1280" y="1150" as="sourcePoint" />
            <mxPoint x="1500" y="940" as="targetPoint" />
            <Array as="points">
              <mxPoint x="1280" y="1560" />
              <mxPoint x="875" y="1560" />
            </Array>
          </mxGeometry>
        </mxCell>
        <mxCell id="C2iOl5TPx-IQzo7V2mOy-14" value="UnknownCommandHandler" style="swimlane;fontStyle=1;align=center;verticalAlign=top;childLayout=stackLayout;horizontal=1;startSize=68;horizontalStack=0;resizeParent=1;resizeParentMax=0;resizeLast=0;collapsible=1;marginBottom=0;" parent="WIyWlLk6GJQsqaUBKTNV-1" vertex="1">
          <mxGeometry x="780" y="1390" width="190" height="30" as="geometry" />
        </mxCell>
        <mxCell id="C2iOl5TPx-IQzo7V2mOy-18" value="NoSuchFileHandler" style="swimlane;fontStyle=1;align=center;verticalAlign=top;childLayout=stackLayout;horizontal=1;startSize=68;horizontalStack=0;resizeParent=1;resizeParentMax=0;resizeLast=0;collapsible=1;marginBottom=0;" parent="WIyWlLk6GJQsqaUBKTNV-1" vertex="1">
          <mxGeometry x="560" y="1360" width="190" height="30" as="geometry" />
        </mxCell>
        <mxCell id="C2iOl5TPx-IQzo7V2mOy-56" value="" style="endArrow=open;endFill=1;endSize=12;html=1;exitX=1;exitY=0.5;exitDx=0;exitDy=0;" parent="WIyWlLk6GJQsqaUBKTNV-1" source="ryLc1YjKSVbnKzWnMCqD-3" edge="1">
          <mxGeometry width="160" relative="1" as="geometry">
            <mxPoint x="530" y="1230" as="sourcePoint" />
            <mxPoint x="690" y="1360" as="targetPoint" />
            <Array as="points">
              <mxPoint x="520" y="795" />
              <mxPoint x="520" y="950" />
              <mxPoint x="690" y="950" />
            </Array>
          </mxGeometry>
        </mxCell>
        <mxCell id="C2iOl5TPx-IQzo7V2mOy-57" value="" style="endArrow=none;dashed=1;html=1;exitX=0.5;exitY=0;exitDx=0;exitDy=0;" parent="WIyWlLk6GJQsqaUBKTNV-1" source="C2iOl5TPx-IQzo7V2mOy-58" edge="1">
          <mxGeometry width="50" height="50" relative="1" as="geometry">
            <mxPoint x="940" y="1590" as="sourcePoint" />
            <mxPoint x="850" y="1350" as="targetPoint" />
          </mxGeometry>
        </mxCell>
        <mxCell id="C2iOl5TPx-IQzo7V2mOy-58" value="WrongInputHandler" style="swimlane;fontStyle=1;align=center;verticalAlign=top;childLayout=stackLayout;horizontal=1;startSize=68;horizontalStack=0;resizeParent=1;resizeParentMax=0;resizeLast=0;collapsible=1;marginBottom=0;" parent="WIyWlLk6GJQsqaUBKTNV-1" vertex="1">
          <mxGeometry x="1030" y="1400" width="190" height="30" as="geometry" />
        </mxCell>
        <mxCell id="C2iOl5TPx-IQzo7V2mOy-59" value="" style="endArrow=open;endFill=1;endSize=12;html=1;exitX=0.464;exitY=1.095;exitDx=0;exitDy=0;exitPerimeter=0;" parent="WIyWlLk6GJQsqaUBKTNV-1" source="7sVxfF_X4f4mhm9MYnKA-3" edge="1">
          <mxGeometry width="160" relative="1" as="geometry">
            <mxPoint x="720" y="1020" as="sourcePoint" />
            <mxPoint x="1154" y="1396" as="targetPoint" />
          </mxGeometry>
        </mxCell>
        <mxCell id="C2iOl5TPx-IQzo7V2mOy-66" value="" style="endArrow=open;endFill=1;endSize=12;html=1;exitX=0.5;exitY=1;exitDx=0;exitDy=0;entryX=0.081;entryY=-0.2;entryDx=0;entryDy=0;entryPerimeter=0;" parent="WIyWlLk6GJQsqaUBKTNV-1" source="VJrtjI2OKQ1O3ZYctq5D-17" edge="1">
          <mxGeometry width="160" relative="1" as="geometry">
            <mxPoint x="230" y="1273" as="sourcePoint" />
            <mxPoint x="41.059999999999945" y="346" as="targetPoint" />
            <Array as="points">
              <mxPoint x="450" y="1210" />
              <mxPoint x="40" y="1210" />
            </Array>
          </mxGeometry>
        </mxCell>
        <mxCell id="C2iOl5TPx-IQzo7V2mOy-73" value="" style="endArrow=open;endFill=1;endSize=12;html=1;exitX=-0.006;exitY=-0.095;exitDx=0;exitDy=0;exitPerimeter=0;entryX=0.596;entryY=1.143;entryDx=0;entryDy=0;entryPerimeter=0;" parent="WIyWlLk6GJQsqaUBKTNV-1" source="ryLc1YjKSVbnKzWnMCqD-3" target="C2iOl5TPx-IQzo7V2mOy-72" edge="1">
          <mxGeometry width="160" relative="1" as="geometry">
            <mxPoint x="430" y="700" as="sourcePoint" />
            <mxPoint x="590" y="700" as="targetPoint" />
            <Array as="points">
              <mxPoint x="115" y="770" />
            </Array>
          </mxGeometry>
        </mxCell>
        <mxCell id="C2iOl5TPx-IQzo7V2mOy-10" value="Handler" style="swimlane;fontStyle=1;align=center;verticalAlign=top;childLayout=stackLayout;horizontal=1;startSize=26;horizontalStack=0;resizeParent=1;resizeParentMax=0;resizeLast=0;collapsible=1;marginBottom=0;" parent="WIyWlLk6GJQsqaUBKTNV-1" vertex="1">
          <mxGeometry x="780" y="1200" width="160" height="68" as="geometry" />
        </mxCell>
        <mxCell id="C2iOl5TPx-IQzo7V2mOy-13" value="+ handleError()" style="text;strokeColor=none;fillColor=none;align=left;verticalAlign=top;spacingLeft=4;spacingRight=4;overflow=hidden;rotatable=0;points=[[0,0.5],[1,0.5]];portConstraint=eastwest;" parent="C2iOl5TPx-IQzo7V2mOy-10" vertex="1">
          <mxGeometry y="26" width="160" height="42" as="geometry" />
        </mxCell>
        <mxCell id="uOvQU9ALcyfX1l_JTirq-1" value="" style="endArrow=diamondThin;endFill=1;endSize=24;html=1;exitX=1.002;exitY=0.063;exitDx=0;exitDy=0;exitPerimeter=0;entryX=0.012;entryY=-0.03;entryDx=0;entryDy=0;entryPerimeter=0;startArrow=open;startFill=0;" edge="1" parent="WIyWlLk6GJQsqaUBKTNV-1" source="C2iOl5TPx-IQzo7V2mOy-7" target="C2iOl5TPx-IQzo7V2mOy-41">
          <mxGeometry width="160" relative="1" as="geometry">
            <mxPoint x="760" y="320" as="sourcePoint" />
            <mxPoint x="920" y="320" as="targetPoint" />
          </mxGeometry>
        </mxCell>
        <mxCell id="uOvQU9ALcyfX1l_JTirq-2" value="" style="endArrow=diamondThin;endFill=1;endSize=24;html=1;entryX=0.601;entryY=1.161;entryDx=0;entryDy=0;entryPerimeter=0;startArrow=open;startFill=0;" edge="1" parent="WIyWlLk6GJQsqaUBKTNV-1" target="C2iOl5TPx-IQzo7V2mOy-41">
          <mxGeometry width="160" relative="1" as="geometry">
            <mxPoint x="825" y="715" as="sourcePoint" />
            <mxPoint x="920" y="600" as="targetPoint" />
            <Array as="points">
              <mxPoint x="825" y="500" />
              <mxPoint x="1236" y="500" />
            </Array>
          </mxGeometry>
        </mxCell>
        <mxCell id="uOvQU9ALcyfX1l_JTirq-5" value="" style="endArrow=none;html=1;startArrow=open;startFill=0;" edge="1" parent="WIyWlLk6GJQsqaUBKTNV-1" source="C2iOl5TPx-IQzo7V2mOy-3">
          <mxGeometry width="50" height="50" relative="1" as="geometry">
            <mxPoint x="1080" y="835" as="sourcePoint" />
            <mxPoint x="1045" y="500" as="targetPoint" />
          </mxGeometry>
        </mxCell>
        <mxCell id="C2iOl5TPx-IQzo7V2mOy-3" value="Executor" style="swimlane;fontStyle=1;align=center;verticalAlign=top;childLayout=stackLayout;horizontal=1;startSize=60;horizontalStack=0;resizeParent=1;resizeParentMax=0;resizeLast=0;collapsible=1;marginBottom=0;" parent="WIyWlLk6GJQsqaUBKTNV-1" vertex="1">
          <mxGeometry x="890" y="840" width="310" height="80" as="geometry" />
        </mxCell>
        <mxCell id="C2iOl5TPx-IQzo7V2mOy-44" value="&lt;span style=&quot;text-align: left&quot;&gt;+ execute(List&amp;lt;CommandProcessor&amp;gt;)&lt;/span&gt;" style="text;html=1;align=center;verticalAlign=middle;resizable=0;points=[];autosize=1;" parent="C2iOl5TPx-IQzo7V2mOy-3" vertex="1">
          <mxGeometry y="60" width="310" height="20" as="geometry" />
        </mxCell>
        <mxCell id="uOvQU9ALcyfX1l_JTirq-6" value="" style="endArrow=diamondThin;endFill=1;endSize=24;html=1;entryX=0.504;entryY=1.264;entryDx=0;entryDy=0;entryPerimeter=0;exitX=0.219;exitY=-0.027;exitDx=0;exitDy=0;exitPerimeter=0;startArrow=open;startFill=0;" edge="1" parent="WIyWlLk6GJQsqaUBKTNV-1" source="7sVxfF_X4f4mhm9MYnKA-0" target="C2iOl5TPx-IQzo7V2mOy-44">
          <mxGeometry width="160" relative="1" as="geometry">
            <mxPoint x="750" y="1040" as="sourcePoint" />
            <mxPoint x="910" y="1040" as="targetPoint" />
            <Array as="points">
              <mxPoint x="1046" y="925" />
            </Array>
          </mxGeometry>
        </mxCell>
        <mxCell id="uOvQU9ALcyfX1l_JTirq-7" value="" style="endArrow=diamondThin;endFill=1;endSize=24;html=1;entryX=0;entryY=0.5;entryDx=0;entryDy=0;exitX=1;exitY=0.5;exitDx=0;exitDy=0;startArrow=open;startFill=0;" edge="1" parent="WIyWlLk6GJQsqaUBKTNV-1" source="ryLc1YjKSVbnKzWnMCqD-1" target="C2iOl5TPx-IQzo7V2mOy-3">
          <mxGeometry width="160" relative="1" as="geometry">
            <mxPoint x="580" y="910" as="sourcePoint" />
            <mxPoint x="740" y="910" as="targetPoint" />
            <Array as="points">
              <mxPoint x="600" y="739" />
              <mxPoint x="600" y="880" />
            </Array>
          </mxGeometry>
        </mxCell>
      </root>
    </mxGraphModel>
  </diagram>
</mxfile>
